<?xml version="1.0" encoding="utf-8"?>
<!-- Generator: Adobe Illustrator 16.0.0, SVG Export Plug-In . SVG Version: 6.00 Build 0)  -->
<!DOCTYPE svg PUBLIC "-//W3C//DTD SVG 1.1//EN" "http://www.w3.org/Graphics/SVG/1.1/DTD/svg11.dtd">
<svg version="1.1"
	 id="svg3765" sodipodi:docname="background.svg" inkscape:version="0.48.4 r9939" xmlns:cc="http://creativecommons.org/ns#" xmlns:rdf="http://www.w3.org/1999/02/22-rdf-syntax-ns#" xmlns:inkscape="http://www.inkscape.org/namespaces/inkscape" xmlns:dc="http://purl.org/dc/elements/1.1/" xmlns:svg="http://www.w3.org/2000/svg" xmlns:sodipodi="http://sodipodi.sourceforge.net/DTD/sodipodi-0.dtd"
	 xmlns="http://www.w3.org/2000/svg" xmlns:xlink="http://www.w3.org/1999/xlink" x="0px" y="0px" width="2120px" height="999px"
	 viewBox="0 0 2120 999" enable-background="new 0 0 2120 999" xml:space="preserve">
<sodipodi:namedview  inkscape:window-maximized="1" pagecolor="#ffffff" showgrid="false" bordercolor="#666666" borderopacity="1.0" inkscape:zoom="0.49497475" inkscape:cx="1620.7402" inkscape:cy="353.13111" id="base" inkscape:pageopacity="0.0" inkscape:pageshadow="2" inkscape:document-units="px" inkscape:current-layer="layer3" inkscape:window-width="1366" inkscape:window-height="705" inkscape:window-x="-8" inkscape:window-y="-8">
	</sodipodi:namedview>
<g id="layer1" transform="translate(0,-287.36217)" inkscape:label="Background" sodipodi:insensitive="true" inkscape:groupmode="layer" display="none">
	<rect id="rect4282" x="2.021" y="282.626" display="inline" width="2563.767" height="771.757"/>
</g>
<g id="BTC_2_" opacity="0.07">
	<path fill="#FCFCFC" d="M653.88,89.888c-1.486-0.744-4.796-1.748-8.736-2.008c-3.942-0.26-8.998,0-8.998,0v17.065
		c0,0,5.279,0.113,8.813-0.148c3.53-0.26,7.175-1.152,8.997-2.158c1.82-1.003,4.015-2.565,4.015-6.468
		C657.97,92.266,655.367,90.631,653.88,89.888z"/>
	<path fill="#FCFCFC" d="M642.763,79.959c2.901-0.112,5.987-0.78,8.216-2.007c2.23-1.228,3.495-3.159,3.421-6.06
		c-0.076-2.9-2.007-5.354-5.279-6.359c-3.272-1.004-5.464-1.079-7.957-1.115c-2.492-0.037-5.02,0.187-5.02,0.187v15.355
		C636.146,79.959,639.864,80.072,642.763,79.959z"/>
	<path fill="#FCFCFC" d="M641.202,20.397c-35.606,0-64.471,28.864-64.471,64.471c0,35.605,28.865,64.471,64.471,64.471
		c35.605,0,64.469-28.865,64.469-64.471C705.671,49.261,676.807,20.397,641.202,20.397z M667.452,109.519
		c-4.797,3.346-9.928,3.941-12.196,4.238c-1.12,0.148-3.037,0.303-5.093,0.423v12.925h-7.957v-12.716c-1.487,0-3.616,0-6.06,0
		v12.716h-7.957v-12.716c-7.875,0-15.653,0-15.653,0l1.636-9.557c0,0,3.159,0,4.758,0c1.6,0,2.268-0.148,2.937-0.78
		c0.669-0.633,0.817-1.599,0.817-2.381c0-0.78,0-30.859,0-32.922s-0.167-2.621-1.116-3.68c-0.948-1.062-3.178-1.2-4.434-1.2
		c-1.254,0-4.599,0-4.599,0v-8.261c0,0,7.53,0,15.652,0V42.854h7.956v12.753c2.211,0,4.285,0,6.06,0V42.854h7.957V55.76
		c5.932,0.368,10.348,1.498,14.202,4.346c4.982,3.68,4.722,10.075,4.61,11.6c-0.111,1.525-0.78,4.462-2.12,6.357
		c-1.336,1.896-4.609,3.793-4.609,3.793s3.866,0.817,6.581,2.863c2.712,2.045,4.723,5.651,4.608,10.93
		C673.325,100.929,672.248,106.173,667.452,109.519z"/>
</g>
<g opacity="0.07">
	<path fill="#FCFCFC" d="M399.493,297.92l-19.142,32.913l19.142,32.916h38.036l19.396-33.006l-19.72-32.822H399.493z
		 M436.502,348.413h-35.934v-7.813h28.12v-20.305h-6.453v14.445h-21.667v-7.815h13.852v-6.63h-13.852v-7.814h35.934V348.413z"/>
	<path fill="#FCFCFC" d="M418.668,259.423c-39.439,0-71.411,31.972-71.411,71.41c0,39.439,31.972,71.409,71.411,71.409
		c39.438,0,71.41-31.97,71.41-71.409C490.078,291.395,458.107,259.423,418.668,259.423z M442.813,372.983h-48.63l-24.515-42.15
		l24.516-42.148h48.246l25.239,42.004L442.813,372.983z"/>
</g>
<path opacity="0.07" fill="#FCFCFC" d="M117.5,23.236c-59.343,0-107.5,48.157-107.5,107.5s48.157,107.5,107.5,107.5
	S225,190.079,225,130.736S176.843,23.236,117.5,23.236z M117.784,59.449l40.763,64.272l-40.763-18.201l-41.995,17.727
	L117.784,59.449z M118.069,114.242l42.564,18.959l-42.564,23.794l-43.796-24.269L118.069,114.242z M118.258,202.023l-42.374-59.059
	l41.995,24.269l42.754-24.269L118.258,202.023z"/>
<path opacity="0.07" fill="#FCFCFC" d="M641.201,354.073c-31.417,0-56.885,25.469-56.885,56.885s25.468,56.884,56.885,56.884
	c31.416,0,56.884-25.468,56.884-56.884S672.617,354.073,641.201,354.073z M640.464,448.645l-22.48-31.8l22.48,13.162V448.645z
	 M640.464,425.347l-22.632-13.257l22.632-9.914V425.347z M640.464,400.583l-21.904,9.594l21.904-36.801V400.583z M641.922,373.365
	l22.211,36.948l-22.211-9.73V373.365z M641.922,448.645v-18.638l22.48-13.162L641.922,448.645z M641.922,425.347v-23.17l22.649,9.92
	L641.922,425.347z"/>
<path id="LTC" opacity="0.05" fill="#FCFCFC" d="M662.52,578.313c-52.711,0-95.441,42.731-95.441,95.443
	c0,52.713,42.73,95.44,95.441,95.44c52.713,0,95.442-42.728,95.442-95.44C757.963,621.045,715.233,578.313,662.52,578.313z
	 M699.568,720.298h-74.573l6.268-29.923l-12.187,8.357l2.96-16.375l12.748-8.774l12.503-59.685h23.28l-8.608,40.982l30.309-20.86
	l-3.551,16.968l-30.305,20.774l-5.995,28.546h51.294L699.568,720.298z"/>
<g id="BC_1_" opacity="0.07">
	<path fill="#FCFCFC" d="M305.005,65.55c2.237-2.909,1.535-8.383-1.174-10.252c-2.709-1.87-5.562-0.935-6.113-0.408
		c-0.551,0.527-0.527,12.801-0.527,12.801S302.768,68.458,305.005,65.55z"/>
	<path fill="#FCFCFC" d="M305.42,70.776c-2.093-0.911-8.229-0.671-8.229-0.671s-0.095,3.1,0.127,8.901
		c0.224,5.801,2.206,5.769,4.267,5.849c2.063,0.08,5.994-0.063,7.288-5.065C310.167,74.787,307.514,71.686,305.42,70.776z"/>
	<path fill="#FCFCFC" d="M300.668,34.789c-19.196,0-34.758,15.562-34.758,34.758s15.562,34.758,34.758,34.758
		s34.758-15.562,34.758-34.758S319.864,34.789,300.668,34.789z M314.786,59.805c0.096,5.801-4.962,7.431-4.962,7.431
		s2.062-1.992,1.965-7.096c-0.096-5.103-3.931-7.623-3.931-7.623S314.69,54.003,314.786,59.805z M292.045,87.06l-7,0.336v-0.64
		c0,0,4.283-0.432,4.283-7.942c0-7.512,0-12.833,0-19.193s-4.283-7.463-4.283-7.463v-0.575l7,0.336V87.06z M303.232,87.419
		c-3.045,0.024-8.694-0.392-8.694-0.392V51.966c3.724-0.048,5.026-0.552,8.095-0.12c3.068,0.431,5.705,3.428,6.424,6.425
		c0.719,2.996-0.047,5.849-1.031,7.406c-0.982,1.559-3.14,2.638-3.14,2.638s3.26,1.103,4.411,2.061
		c1.151,0.96,3.38,3.572,2.517,9.254C310.95,85.31,306.276,87.396,303.232,87.419z M311.323,86.125c0,0,3.319-2.829,3.173-8.564
		c-0.146-5.736-3.173-8.432-3.173-8.432s6.244,1.534,6.315,8.366C317.71,84.328,311.323,86.125,311.323,86.125z"/>
</g>
<path opacity="0.05" fill="#FCFCFC" d="M456.924,75.347c-30.59,0-55.389,24.799-55.389,55.389s24.799,55.389,55.39,55.389
	s55.389-24.799,55.389-55.389C512.313,100.146,487.515,75.347,456.924,75.347z M429.165,126.541h22.112l-2.56,8.316h-22.11
	L429.165,126.541z M486.449,122.619c-0.88,3.178-3.74,12.713-4.914,16.094c-1.172,3.381-3.336,6.221-6.108,7.844
	c-2.773,1.623-3.81,2.301-7.685,2.301h-39.681l2.795-9.057h37.317l5.576-18.127h-37.022l2.795-9.059c0,0,40.886,0,41.314,0
	c1.893,0,4.395,0.877,5.612,3.244C487.666,118.224,487.328,119.441,486.449,122.619z"/>
<g id="BCN_1_" opacity="0.07">
	<path fill="#FCFCFC" d="M374.735,699.111c-6.757,0-12.48,0-15.707,0v19.52c4.843,0,11.62,0,15.807,0
		c7.068,0,14.651-2.522,14.651-8.862C389.487,703.429,385.169,699.111,374.735,699.111z"/>
	<path fill="#FCFCFC" d="M384.271,682.562c0-6.115-5.722-8.807-11.331-8.807c-3.969,0-10.451,0-13.911,0v18.007
		c3.579,0,9.763,0,13.574,0C378.213,691.762,384.271,688.677,384.271,682.562z"/>
	<path fill="#FCFCFC" d="M365.135,632.467c-35.758,0-64.745,28.987-64.745,64.745c0,35.757,28.987,64.744,64.745,64.744
		c35.757,0,64.744-28.987,64.744-64.744C429.88,661.454,400.892,632.467,365.135,632.467z M375.52,729.219c-6.859,0-28.01,0-28.01,0
		v-16.59h-17.203v-8.414h17.203v-11.163h-17.203v-8.415h17.203v-19.742c0,0,23.716,0,30.254,0c10.771,0,17.615,9.012,17.615,16.079
		c0,7.068-6.507,11.069-6.507,11.069s11.218,3.702,11.218,16.827C400.091,721.997,388.759,729.219,375.52,729.219z"/>
</g>
<path opacity="0.07" fill="#FCFCFC" d="M127.609,761.956c-60.447,0-109.5,49.053-109.5,109.5s49.053,109.5,109.5,109.5
	s109.5-49.053,109.5-109.5S188.056,761.956,127.609,761.956z M156.673,930.551c0,0,5.118-17.188,2.897-32.637
	c-2.318-15.45-16.126-34.183-26.555-42.584c-10.332-8.497-30.416-18.057-30.416-18.057s17.381,13.325,23.464,19.698
	c5.986,6.373,14.291,16.898,18.25,30.706c3.862,13.809,3.283,37.853-4.731,42.873c-8.015,5.021-28.969-3.669-35.921-9.559
	c-6.952-5.891-15.933-15.45-18.54-35.342c-2.606-19.892-1.931-66.337-1.931-66.337s37.272,0.192,65.468,17.96
	c28.196,17.768,30.803,31.865,30.803,54.653C179.461,914.813,156.673,930.551,156.673,930.551z"/>
<path opacity="0.05" fill="#FCFCFC" d="M490.079,479.611c-27.547,0-49.879,22.33-49.879,49.877s22.332,49.879,49.879,49.879
	c27.546,0,49.877-22.332,49.877-49.879S517.625,479.611,490.079,479.611z M513.399,529.387c0,12.93-9.985,17.324-18.392,17.324
	v3.371h6.485v4.564h-6.485v5.25h-10.142v-5.25h-6.2v-4.564h6.186v-3.414c-2.688,0-18.092-0.641-18.092-18.221
	c0-16.598,0-21.164,0-21.164h10.07c0,0,0,19.16,0,21.977c0,9.174,8.064,9.088,8.064,9.088v-31.064h10.113v31.064
	c0,0,8.32,0.469,8.32-9.217s0-21.848,0-21.848h10.071C513.399,507.283,513.399,522.389,513.399,529.387z"/>
<g id="DOGE_2_" opacity="0.07">
	<path fill="#FCFCFC" d="M113.046,628.241c-3.128,0-8.368,0-8.368,0v16.492h13.162v6.906h-13.162v16.494c0,0,6.52,0,8.773,0
		c2.255,0,18.513,0.254,18.487-19.19C131.914,629.501,116.173,628.241,113.046,628.241z"/>
	<path fill="#FCFCFC" d="M111.639,589.652c-32.34,0-58.556,26.217-58.556,58.555c0,32.339,26.216,58.554,58.556,58.554
		c32.338,0,58.553-26.215,58.553-58.554C170.192,615.869,143.977,589.652,111.639,589.652z M113.939,679.832H92.733v-28.191h-7.475
		v-6.905h7.475v-28.194c0,0,13.894,0,18.199,0s32.823-0.894,32.823,32.175C143.756,682.331,113.939,679.832,113.939,679.832z"/>
</g>
<g id="BTC_1_" opacity="0.05">
	<path fill="#FCFCFC" d="M188.771,425.433c-2.178-1.091-7.029-2.561-12.801-2.942c-5.776-0.382-13.185,0-13.185,0v25.006
		c0,0,7.736,0.165,12.913-0.217c5.174-0.381,10.515-1.688,13.184-3.162c2.667-1.47,5.883-3.759,5.883-9.478
		C194.764,428.918,190.949,426.521,188.771,425.433z"/>
	<path fill="#FCFCFC" d="M172.481,410.885c4.253-0.164,8.773-1.144,12.04-2.941c3.269-1.799,5.12-4.629,5.014-8.881
		c-0.111-4.25-2.942-7.845-7.736-9.317c-4.795-1.471-8.008-1.58-11.66-1.634s-7.355,0.273-7.355,0.273v22.5
		C162.784,410.885,168.233,411.049,172.481,410.885z"/>
	<path fill="#FCFCFC" d="M170.194,323.605c-52.175,0-94.471,42.296-94.471,94.471s42.296,94.472,94.471,94.472
		c52.174,0,94.468-42.297,94.468-94.472S222.367,323.605,170.194,323.605z M208.658,454.198c-7.029,4.902-14.547,5.775-17.871,6.211
		c-1.642,0.216-4.451,0.443-7.463,0.619v18.939h-11.66v-18.633c-2.178,0-5.299,0-8.88,0v18.633h-11.658v-18.633
		c-11.538,0-22.938,0-22.938,0l2.398-14.004c0,0,4.628,0,6.972,0s3.323-0.217,4.303-1.143c0.98-0.928,1.198-2.343,1.198-3.489
		c0-1.144,0-45.219,0-48.242c0-3.022-0.245-3.84-1.634-5.393c-1.39-1.555-4.657-1.758-6.497-1.758c-1.838,0-6.74,0-6.74,0v-12.105
		c0,0,11.033,0,22.936,0v-18.688h11.658v18.688c3.24,0,6.277,0,8.879,0v-18.688h11.66v18.911c8.693,0.539,15.163,2.195,20.813,6.369
		c7.301,5.393,6.917,14.764,6.754,16.997c-0.163,2.234-1.142,6.538-3.105,9.315c-1.959,2.779-6.754,5.559-6.754,5.559
		s5.664,1.197,9.644,4.195c3.974,2.996,6.92,8.28,6.753,16.016C217.264,441.612,215.685,449.296,208.658,454.198z"/>
</g>
<g id="XMR_2_" opacity="0.07">
	<path fill="#FCFCFC" d="M455.564,902.561v-73.26l56.775,56.776l56.72-56.721v73.205h26.128c2.848-8.618,4.396-17.828,4.396-27.402
		c0-48.198-39.071-87.27-87.269-87.27c-48.198,0-87.27,39.071-87.27,87.27c0,9.574,1.546,18.783,4.396,27.402L455.564,902.561
		L455.564,902.561z"/>
	<path fill="#FCFCFC" d="M550.125,920.312v-46.313l-38.108,38.107l-37.84-37.84v46.046h-36.557
		c15.294,25.243,43.023,42.115,74.694,42.115s59.398-16.872,74.693-42.115L550.125,920.312L550.125,920.312z"/>
</g>
<g id="BTC_3_" opacity="0.07">
	<path fill="#FCFCFC" d="M1945.879,123.676c-1.485-0.744-4.795-1.747-8.735-2.009c-3.942-0.26-8.997,0-8.997,0v17.066
		c0,0,5.279,0.112,8.813-0.148c3.529-0.26,7.174-1.152,8.996-2.158c1.82-1.003,4.015-2.564,4.015-6.468
		C1949.97,126.054,1947.367,124.419,1945.879,123.676z"/>
	<path fill="#FCFCFC" d="M1934.764,113.747c2.9-0.111,5.986-0.779,8.216-2.007c2.23-1.228,3.495-3.159,3.421-6.06
		c-0.076-2.9-2.007-5.354-5.278-6.359c-3.272-1.004-5.464-1.078-7.957-1.115c-2.491-0.037-5.02,0.187-5.02,0.187v15.354
		C1928.146,113.747,1931.864,113.86,1934.764,113.747z"/>
	<path fill="#FCFCFC" d="M1933.201,54.185c-35.605,0-64.471,28.865-64.471,64.47s28.865,64.471,64.471,64.471
		s64.47-28.865,64.47-64.471S1968.807,54.185,1933.201,54.185z M1959.451,143.307c-4.797,3.346-9.928,3.941-12.195,4.237
		c-1.119,0.148-3.037,0.303-5.093,0.424v12.926h-7.957v-12.717c-1.487,0-3.616,0-6.06,0v12.717h-7.957v-12.717
		c-7.875,0-15.652,0-15.652,0l1.635-9.557c0,0,3.16,0,4.759,0c1.6,0,2.268-0.148,2.937-0.779c0.669-0.634,0.817-1.6,0.817-2.382
		c0-0.78,0-30.858,0-32.922s-0.167-2.621-1.116-3.681c-0.947-1.061-3.178-1.199-4.434-1.199c-1.254,0-4.599,0-4.599,0v-8.262
		c0,0,7.53,0,15.652,0V76.642h7.956v12.754c2.211,0,4.285,0,6.061,0V76.642h7.957v12.906c5.932,0.368,10.348,1.498,14.201,4.346
		c4.982,3.681,4.723,10.076,4.611,11.6c-0.111,1.525-0.78,4.463-2.121,6.357c-1.336,1.896-4.608,3.793-4.608,3.793
		s3.866,0.818,6.581,2.863c2.713,2.045,4.723,5.651,4.608,10.931C1965.324,134.718,1964.248,139.961,1959.451,143.307z"/>
</g>
<path opacity="0.07" fill="#FCFCFC" d="M1695.924,165.347c-30.59,0-55.389,24.799-55.389,55.389s24.799,55.389,55.39,55.389
	s55.389-24.799,55.389-55.389C1751.313,190.146,1726.515,165.347,1695.924,165.347z M1668.165,216.541h22.112l-2.56,8.316h-22.11
	L1668.165,216.541z M1725.449,212.619c-0.88,3.178-3.74,12.713-4.914,16.094c-1.172,3.381-3.336,6.221-6.108,7.844
	c-2.773,1.623-3.81,2.301-7.685,2.301h-39.681l2.795-9.057h37.317l5.576-18.127h-37.022l2.795-9.059c0,0,40.886,0,41.314,0
	c1.893,0,4.395,0.877,5.612,3.244C1726.666,208.225,1726.328,209.441,1725.449,212.619z"/>
<path opacity="0.05" fill="#FCFCFC" d="M1928.146,276.125c-59.343,0-107.5,48.157-107.5,107.5c0,59.342,48.157,107.5,107.5,107.5
	s107.5-48.158,107.5-107.5C2035.646,324.282,1987.489,276.125,1928.146,276.125z M1928.43,312.337l40.763,64.272l-40.763-18.201
	l-41.995,17.727L1928.43,312.337z M1928.714,367.131l42.564,18.959l-42.564,23.793l-43.796-24.268L1928.714,367.131z
	 M1928.904,454.912l-42.374-59.059l41.995,24.268l42.754-24.268L1928.904,454.912z"/>
<g opacity="0.07">
	<path fill="#FCFCFC" d="M1742.661,587.439l-19.142,32.913l19.142,32.915h38.036l19.395-33.006l-19.719-32.822H1742.661z
		 M1779.67,637.933h-35.934v-7.813h28.119v-20.305h-6.453v14.445h-21.666v-7.815h13.852v-6.63h-13.852v-7.814h35.934V637.933z"/>
	<path fill="#FCFCFC" d="M1761.836,548.942c-39.439,0-71.411,31.972-71.411,71.41s31.972,71.409,71.411,71.409
		c39.438,0,71.41-31.971,71.41-71.409S1801.275,548.942,1761.836,548.942z M1785.981,662.502h-48.63l-24.515-42.149l24.516-42.147
		h48.246l25.238,42.004L1785.981,662.502z"/>
</g>
<path opacity="0.07" fill="#FCFCFC" d="M2016.201,849.226c-31.416,0-56.885,25.469-56.885,56.885s25.469,56.884,56.885,56.884
	s56.884-25.468,56.884-56.884S2047.617,849.226,2016.201,849.226z M2015.464,943.797l-22.48-31.8l22.48,13.162V943.797z
	 M2015.464,920.499l-22.632-13.257l22.632-9.914V920.499z M2015.464,895.735l-21.903,9.594l21.903-36.801V895.735z
	 M2016.922,868.518l22.211,36.948l-22.211-9.73V868.518z M2016.922,943.797v-18.638l22.48-13.162L2016.922,943.797z
	 M2016.922,920.499v-23.17l22.648,9.92L2016.922,920.499z"/>
<g id="BTC_4_" opacity="0.07">
	<path fill="#FCFCFC" d="M1682.792,429.676c-2.178-1.091-7.028-2.561-12.802-2.942c-5.775-0.382-13.185,0-13.185,0v25.006
		c0,0,7.735,0.165,12.913-0.217c5.174-0.381,10.515-1.688,13.184-3.162c2.668-1.47,5.883-3.759,5.883-9.478
		C1688.785,433.161,1684.971,430.765,1682.792,429.676z"/>
	<path fill="#FCFCFC" d="M1666.502,415.128c4.253-0.164,8.773-1.144,12.04-2.941c3.269-1.799,5.12-4.629,5.015-8.881
		c-0.111-4.25-2.942-7.845-7.736-9.317c-4.795-1.471-8.008-1.58-11.66-1.634c-3.651-0.054-7.354,0.273-7.354,0.273v22.5
		C1656.806,415.128,1662.254,415.292,1666.502,415.128z"/>
	<path fill="#FCFCFC" d="M1664.215,327.849c-52.175,0-94.471,42.296-94.471,94.471s42.296,94.472,94.471,94.472
		c52.174,0,94.469-42.297,94.469-94.472S1716.389,327.849,1664.215,327.849z M1702.68,458.441
		c-7.029,4.902-14.547,5.775-17.871,6.211c-1.642,0.216-4.451,0.443-7.463,0.619v18.939h-11.66v-18.633c-2.178,0-5.299,0-8.88,0
		v18.633h-11.658v-18.633c-11.538,0-22.938,0-22.938,0l2.398-14.004c0,0,4.628,0,6.972,0s3.322-0.217,4.303-1.143
		c0.98-0.928,1.197-2.343,1.197-3.489c0-1.144,0-45.219,0-48.242c0-3.022-0.244-3.84-1.633-5.393
		c-1.391-1.555-4.657-1.758-6.498-1.758c-1.838,0-6.739,0-6.739,0v-12.105c0,0,11.032,0,22.937,0v-18.688h11.658v18.688
		c3.239,0,6.277,0,8.879,0v-18.688h11.659v18.911c8.693,0.539,15.163,2.195,20.813,6.369c7.301,5.393,6.917,14.764,6.754,16.997
		c-0.163,2.234-1.142,6.538-3.104,9.315c-1.959,2.779-6.755,5.559-6.755,5.559s5.664,1.197,9.644,4.195
		c3.974,2.996,6.92,8.28,6.753,16.016C1711.285,445.855,1709.706,453.539,1702.68,458.441z"/>
</g>
<path opacity="0.07" fill="#FCFCFC" d="M1519.867,845.226c-27.547,0-49.879,22.33-49.879,49.877s22.332,49.879,49.879,49.879
	c27.546,0,49.877-22.332,49.877-49.879S1547.413,845.226,1519.867,845.226z M1543.187,895.001c0,12.93-9.985,17.324-18.392,17.324
	v3.371h6.485v4.564h-6.485v5.25h-10.142v-5.25h-6.2v-4.564h6.186v-3.414c-2.688,0-18.092-0.641-18.092-18.221
	c0-16.598,0-21.164,0-21.164h10.07c0,0,0,19.16,0,21.977c0,9.174,8.064,9.088,8.064,9.088v-31.064h10.113v31.064
	c0,0,8.32,0.469,8.32-9.217s0-21.848,0-21.848h10.071C1543.187,872.897,1543.187,888.003,1543.187,895.001z"/>
<g id="XMR_1_" opacity="0.05">
	<path fill="#FCFCFC" d="M1682.69,846.242v-73.26l56.774,56.776l56.72-56.721v73.205h26.129c2.848-8.618,4.396-17.828,4.396-27.402
		c0-48.198-39.071-87.27-87.269-87.27c-48.198,0-87.27,39.071-87.27,87.27c0,9.574,1.545,18.783,4.395,27.402L1682.69,846.242
		L1682.69,846.242z"/>
	<path fill="#FCFCFC" d="M1777.25,863.993v-46.313l-38.107,38.107l-37.84-37.84v46.046h-36.557
		c15.293,25.243,43.022,42.115,74.693,42.115s59.398-16.872,74.693-42.115L1777.25,863.993L1777.25,863.993z"/>
</g>
<g id="DOGE_1_" opacity="0.05">
	<path fill="#FCFCFC" d="M1497.045,118.792c-3.127,0-8.367,0-8.367,0v16.492h13.162v6.906h-13.162v16.494c0,0,6.52,0,8.773,0
		s18.512,0.254,18.486-19.19C1515.914,120.052,1500.172,118.792,1497.045,118.792z"/>
	<path fill="#FCFCFC" d="M1495.639,80.203c-32.34,0-58.555,26.217-58.555,58.555c0,32.339,26.215,58.554,58.555,58.554
		c32.338,0,58.553-26.215,58.553-58.554C1554.192,106.42,1527.977,80.203,1495.639,80.203z M1497.94,170.383h-21.207v-28.191h-7.475
		v-6.905h7.475v-28.194c0,0,13.895,0,18.199,0c4.307,0,32.824-0.894,32.824,32.175
		C1527.756,172.882,1497.94,170.383,1497.94,170.383z"/>
</g>
<path opacity="0.07" fill="#FCFCFC" d="M1984.609,558.634c-60.447,0-109.5,49.053-109.5,109.5s49.053,109.5,109.5,109.5
	s109.5-49.053,109.5-109.5S2045.056,558.634,1984.609,558.634z M2013.673,727.229c0,0,5.118-17.188,2.897-32.637
	c-2.318-15.45-16.126-34.183-26.555-42.584c-10.332-8.497-30.416-18.057-30.416-18.057s17.381,13.325,23.464,19.698
	c5.986,6.373,14.291,16.898,18.25,30.706c3.862,13.809,3.283,37.853-4.731,42.873c-8.015,5.021-28.969-3.669-35.921-9.559
	c-6.952-5.891-15.933-15.45-18.54-35.342c-2.606-19.892-1.931-66.337-1.931-66.337s37.272,0.192,65.468,17.96
	c28.196,17.768,30.803,31.865,30.803,54.653C2036.461,711.49,2013.673,727.229,2013.673,727.229z"/>
<path opacity="0.07" fill="#FCFCFC" d="M1716.18,36.819c-23.96,0-43.385,19.424-43.385,43.385c0,23.96,19.425,43.384,43.385,43.384
	s43.384-19.424,43.384-43.384C1759.564,56.243,1740.14,36.819,1716.18,36.819z M1715.617,108.946l-17.146-24.253l17.146,10.038
	V108.946z M1715.617,91.177l-17.261-10.11l17.261-7.562V91.177z M1715.617,72.291l-16.705,7.317l16.705-28.067V72.291z
	 M1716.73,51.532l16.939,28.18l-16.939-7.421V51.532z M1716.73,108.946V94.731l17.146-10.038L1716.73,108.946z M1716.73,91.177
	V73.506l17.273,7.565L1716.73,91.177z"/>
</svg>
